{
    "asset" : {
        "generator" : "Khronos glTF Blender I/O v1.8.19",
        "version" : "2.0"
    },
    "scene" : 0,
    "scenes" : [
        {
            "name" : "Scene",
            "nodes" : [
                3
            ]
        }
    ],
    "nodes" : [
        {
            "name" : "Bone.001",
            "rotation" : [
                0.6217679381370544,
                0.054399967193603516,
                0.07451723515987396,
                0.7777483463287354
            ],
            "scale" : [
                1,
                0.9999999403953552,
                1
            ],
            "translation" : [
                0,
                1,
                0
            ]
        },
        {
            "children" : [
                0
            ],
            "name" : "Bone_parent"
        },
        {
            "mesh" : 0,
            "name" : "Cube",
            "skin" : 0
        },
        {
            "children" : [
                2,
                1
            ],
            "name" : "Armature"
        }
    ],
    "animations" : [
        {
            "channels" : [
                {
                    "sampler" : 0,
                    "target" : {
                        "node" : 1,
                        "path" : "translation"
                    }
                },
                {
                    "sampler" : 1,
                    "target" : {
                        "node" : 1,
                        "path" : "rotation"
                    }
                },
                {
                    "sampler" : 2,
                    "target" : {
                        "node" : 1,
                        "path" : "scale"
                    }
                },
                {
                    "sampler" : 3,
                    "target" : {
                        "node" : 0,
                        "path" : "translation"
                    }
                }
            ],
            "name" : "ArmatureAction",
            "samplers" : [
                {
                    "input" : 7,
                    "interpolation" : "LINEAR",
                    "output" : 8
                },
                {
                    "input" : 9,
                    "interpolation" : "LINEAR",
                    "output" : 10
                },
                {
                    "input" : 9,
                    "interpolation" : "LINEAR",
                    "output" : 11
                },
                {
                    "input" : 9,
                    "interpolation" : "LINEAR",
                    "output" : 12
                }
            ]
        }
    ],
    "meshes" : [
        {
            "name" : "Cube",
            "primitives" : [
                {
                    "attributes" : {
                        "POSITION" : 0,
                        "NORMAL" : 1,
                        "TEXCOORD_0" : 2,
                        "JOINTS_0" : 3,
                        "WEIGHTS_0" : 4
                    },
                    "indices" : 5
                }
            ]
        }
    ],
    "skins" : [
        {
            "inverseBindMatrices" : 6,
            "joints" : [
                1,
                0
            ],
            "name" : "Armature"
        }
    ],
    "accessors" : [
        {
            "bufferView" : 0,
            "componentType" : 5126,
            "count" : 24,
            "max" : [
                1.0257784128189087,
                2.188394546508789,
                1.389348030090332
            ],
            "min" : [
                -1,
                0.15536871552467346,
                -1
            ],
            "type" : "VEC3"
        },
        {
            "bufferView" : 1,
            "componentType" : 5126,
            "count" : 24,
            "type" : "VEC3"
        },
        {
            "bufferView" : 2,
            "componentType" : 5126,
            "count" : 24,
            "type" : "VEC2"
        },
        {
            "bufferView" : 3,
            "componentType" : 5121,
            "count" : 24,
            "type" : "VEC4"
        },
        {
            "bufferView" : 4,
            "componentType" : 5126,
            "count" : 24,
            "type" : "VEC4"
        },
        {
            "bufferView" : 5,
            "componentType" : 5123,
            "count" : 36,
            "type" : "SCALAR"
        },
        {
            "bufferView" : 6,
            "componentType" : 5126,
            "count" : 2,
            "type" : "MAT4"
        },
        {
            "bufferView" : 7,
            "componentType" : 5126,
            "count" : 60,
            "max" : [
                2.5
            ],
            "min" : [
                0.041666666666666664
            ],
            "type" : "SCALAR"
        },
        {
            "bufferView" : 8,
            "componentType" : 5126,
            "count" : 60,
            "type" : "VEC3"
        },
        {
            "bufferView" : 9,
            "componentType" : 5126,
            "count" : 2,
            "max" : [
                2.5
            ],
            "min" : [
                0.041666666666666664
            ],
            "type" : "SCALAR"
        },
        {
            "bufferView" : 10,
            "componentType" : 5126,
            "count" : 2,
            "type" : "VEC4"
        },
        {
            "bufferView" : 11,
            "componentType" : 5126,
            "count" : 2,
            "type" : "VEC3"
        },
        {
            "bufferView" : 12,
            "componentType" : 5126,
            "count" : 2,
            "type" : "VEC3"
        }
    ],
    "bufferViews" : [
        {
            "buffer" : 0,
            "byteLength" : 288,
            "byteOffset" : 0
        },
        {
            "buffer" : 0,
            "byteLength" : 288,
            "byteOffset" : 288
        },
        {
            "buffer" : 0,
            "byteLength" : 192,
            "byteOffset" : 576
        },
        {
            "buffer" : 0,
            "byteLength" : 96,
            "byteOffset" : 768
        },
        {
            "buffer" : 0,
            "byteLength" : 384,
            "byteOffset" : 864
        },
        {
            "buffer" : 0,
            "byteLength" : 72,
            "byteOffset" : 1248
        },
        {
            "buffer" : 0,
            "byteLength" : 128,
            "byteOffset" : 1320
        },
        {
            "buffer" : 0,
            "byteLength" : 240,
            "byteOffset" : 1448
        },
        {
            "buffer" : 0,
            "byteLength" : 720,
            "byteOffset" : 1688
        },
        {
            "buffer" : 0,
            "byteLength" : 8,
            "byteOffset" : 2408
        },
        {
            "buffer" : 0,
            "byteLength" : 32,
            "byteOffset" : 2416
        },
        {
            "buffer" : 0,
            "byteLength" : 24,
            "byteOffset" : 2448
        },
        {
            "buffer" : 0,
            "byteLength" : 24,
            "byteOffset" : 2472
        }
    ],
    "buffers" : [
        {
            "byteLength" : 2496,
            "uri" : "rigged_cube.bin"
        }
    ]
}
