{
    "asset" : {
        "generator" : "Khronos glTF Blender I/O v1.8.19",
        "version" : "2.0"
    },
    "scene" : 0,
    "scenes" : [
        {
            "name" : "Scene",
            "nodes" : [
                5
            ]
        }
    ],
    "nodes" : [
        {
            "name" : "Bone.001",
            "rotation" : [
                -0.10444417595863342,
                0.004347817040979862,
                0.0806313157081604,
                0.9912472367286682
            ],
            "scale" : [
                0.9999999403953552,
                1.0000001192092896,
                1.0000001192092896
            ],
            "translation" : [
                7.805949664430045e-09,
                0.6337375640869141,
                -2.2637259178281965e-08
            ]
        },
        {
            "name" : "Bone.005",
            "rotation" : [
                0.19450077414512634,
                -1.10727387436782e-06,
                0.8200010061264038,
                0.5383008122444153
            ],
            "scale" : [
                0.9999998807907104,
                0.9999999403953552,
                1.0000001192092896
            ],
            "translation" : [
                -6.356283677177998e-08,
                1.36271071434021,
                -2.35617765298457e-08
            ]
        },
        {
            "children" : [
                1
            ],
            "name" : "Bone.002",
            "rotation" : [
                -0.3000672161579132,
                -0.039559029042720795,
                -0.6525837779045105,
                0.6946431994438171
            ],
            "scale" : [
                0.9999998211860657,
                1,
                0.9999999403953552
            ],
            "translation" : [
                2.6664994656755425e-09,
                0.6337375640869141,
                -2.0232873154668596e-08
            ]
        },
        {
            "children" : [
                0,
                2
            ],
            "name" : "Bone",
            "rotation" : [
                0.07460618764162064,
                -0.0031881071627140045,
                0.06460537016391754,
                0.9951130151748657
            ],
            "scale" : [
                1,
                0.9999999403953552,
                1
            ],
            "translation" : [
                -0.010695064440369606,
                -0.5442131757736206,
                0.0905582383275032
            ]
        },
        {
            "mesh" : 0,
            "name" : "Cube",
            "skin" : 0
        },
        {
            "children" : [
                4,
                3
            ],
            "name" : "Armature",
            "translation" : [
                2.6614675521850586,
                0.6483743786811829,
                -9.843722343444824
            ]
        }
    ],
    "materials" : [
        {
            "doubleSided" : true,
            "name" : "Material",
            "pbrMetallicRoughness" : {
                "metallicFactor" : 0,
                "roughnessFactor" : 0.4000000059604645
            }
        }
    ],
    "meshes" : [
        {
            "name" : "Cube",
            "primitives" : [
                {
                    "attributes" : {
                        "POSITION" : 0,
                        "NORMAL" : 1,
                        "TEXCOORD_0" : 2,
                        "JOINTS_0" : 3,
                        "WEIGHTS_0" : 4
                    },
                    "indices" : 5,
                    "material" : 0
                }
            ]
        }
    ],
    "skins" : [
        {
            "inverseBindMatrices" : 6,
            "joints" : [
                3,
                0,
                2,
                1
            ],
            "name" : "Armature"
        }
    ],
    "accessors" : [
        {
            "bufferView" : 0,
            "componentType" : 5126,
            "count" : 2869,
            "max" : [
                4.028655052185059,
                1.632749319076538,
                -8.992159843444824
            ],
            "min" : [
                1.2942800521850586,
                -0.33600062131881714,
                -10.695284843444824
            ],
            "type" : "VEC3"
        },
        {
            "bufferView" : 1,
            "componentType" : 5126,
            "count" : 2869,
            "type" : "VEC3"
        },
        {
            "bufferView" : 2,
            "componentType" : 5126,
            "count" : 2869,
            "type" : "VEC2"
        },
        {
            "bufferView" : 3,
            "componentType" : 5121,
            "count" : 2869,
            "type" : "VEC4"
        },
        {
            "bufferView" : 4,
            "componentType" : 5126,
            "count" : 2869,
            "type" : "VEC4"
        },
        {
            "bufferView" : 5,
            "componentType" : 5123,
            "count" : 2901,
            "type" : "SCALAR"
        },
        {
            "bufferView" : 6,
            "componentType" : 5126,
            "count" : 4,
            "type" : "MAT4"
        }
    ],
    "bufferViews" : [
        {
            "buffer" : 0,
            "byteLength" : 34428,
            "byteOffset" : 0
        },
        {
            "buffer" : 0,
            "byteLength" : 34428,
            "byteOffset" : 34428
        },
        {
            "buffer" : 0,
            "byteLength" : 22952,
            "byteOffset" : 68856
        },
        {
            "buffer" : 0,
            "byteLength" : 11476,
            "byteOffset" : 91808
        },
        {
            "buffer" : 0,
            "byteLength" : 45904,
            "byteOffset" : 103284
        },
        {
            "buffer" : 0,
            "byteLength" : 5802,
            "byteOffset" : 149188
        },
        {
            "buffer" : 0,
            "byteLength" : 256,
            "byteOffset" : 154992
        }
    ],
    "buffers" : [
        {
            "byteLength" : 155248,
            "uri" : "suzanne.bin"
        }
    ]
}
